# xmcd
# 
# Track frame offsets:
#     150
#     18880
#     37660
#     57177
#     77562
#     92295
#     109725
#     125020
#     143925
#     162870
#     179155
#     199140
#     214315
#     229680
# 
# Disc length: 3279
# 
# Revision: 2
# Processed by: cddbd v1.5.2PL0 Copyright (c) Steve Scherf et al.
# Submitted via: BonkEnc v1.0
# 
DISCID=b60ccd0e
DTITLE=Zezé di Camargo and Luciano - Dois corações e uma história · Vol. 5
DYEAR=2004
DGENRE=Brega
TTITLE0=Pare!
TTITLE1=Antes de voltar pra casa
TTITLE2=Amor selvagem
TTITLE3=Dou a vida por um beijo
TTITLE4=Eu nasci pra amar você (Born to give my love to you)
TTITLE5=O que é que eu faço?
TTITLE6=Saudade
TTITLE7=Será que foi saudade?
TTITLE8=Tá escrito em meu olhar
TTITLE9=Tarde demais
TTITLE10=Demorou demais
TTITLE11=O último dos apaixonados
TTITLE12=Do jeito que a moçada gosta
TTITLE13=Vou levar você
EXTD=Sony Music Columbia 5099751554820
EXTT0=
EXTT1=
EXTT2=
EXTT3=
EXTT4=
EXTT5=
EXTT6=
EXTT7=
EXTT8=
EXTT9=
EXTT10=
EXTT11=
EXTT12=
EXTT13=
PLAYORDER=
